<mxfile host="Electron" agent="Mozilla/5.0 (X11; Linux x86_64) AppleWebKit/537.36 (KHTML, like Gecko) draw.io/26.2.2 Chrome/134.0.6998.178 Electron/35.1.2 Safari/537.36" version="26.2.2">
  <diagram name="Page-1" id="qeLaA1gAfApt4-c085ZC">
    <mxGraphModel dx="657" dy="469" grid="1" gridSize="10" guides="1" tooltips="1" connect="1" arrows="1" fold="1" page="1" pageScale="1" pageWidth="360" pageHeight="320" math="0" shadow="0">
      <root>
        <mxCell id="0" />
        <mxCell id="1" parent="0" />
        <mxCell id="d-cQ0HsLinr8hj7tUdYu-4" style="edgeStyle=orthogonalEdgeStyle;rounded=1;orthogonalLoop=1;jettySize=auto;html=1;exitX=0;exitY=0.5;exitDx=0;exitDy=0;entryX=0.5;entryY=0;entryDx=0;entryDy=0;curved=0;" edge="1" parent="1" source="d-cQ0HsLinr8hj7tUdYu-1" target="d-cQ0HsLinr8hj7tUdYu-2">
          <mxGeometry relative="1" as="geometry" />
        </mxCell>
        <mxCell id="d-cQ0HsLinr8hj7tUdYu-16" style="edgeStyle=orthogonalEdgeStyle;rounded=1;orthogonalLoop=1;jettySize=auto;html=1;exitX=1;exitY=0.5;exitDx=0;exitDy=0;entryX=0.5;entryY=0;entryDx=0;entryDy=0;curved=0;" edge="1" parent="1" source="d-cQ0HsLinr8hj7tUdYu-1" target="d-cQ0HsLinr8hj7tUdYu-14">
          <mxGeometry relative="1" as="geometry" />
        </mxCell>
        <mxCell id="d-cQ0HsLinr8hj7tUdYu-1" value="Vehicle" style="rounded=1;whiteSpace=wrap;html=1;spacingTop=0;" vertex="1" parent="1">
          <mxGeometry x="160" y="40" width="60" height="30" as="geometry" />
        </mxCell>
        <mxCell id="d-cQ0HsLinr8hj7tUdYu-5" value="" style="group" vertex="1" connectable="0" parent="1">
          <mxGeometry x="50" y="90" width="80" height="60" as="geometry" />
        </mxCell>
        <mxCell id="d-cQ0HsLinr8hj7tUdYu-2" value="Car" style="rounded=1;whiteSpace=wrap;html=1;spacingLeft=0;spacingTop=-35;fillColor=#dae8fc;strokeColor=#6c8ebf;" vertex="1" parent="d-cQ0HsLinr8hj7tUdYu-5">
          <mxGeometry width="80" height="60" as="geometry" />
        </mxCell>
        <mxCell id="d-cQ0HsLinr8hj7tUdYu-3" value="Vehicle" style="rounded=1;whiteSpace=wrap;html=1;spacingTop=0;" vertex="1" parent="d-cQ0HsLinr8hj7tUdYu-5">
          <mxGeometry x="10" y="20" width="60" height="30" as="geometry" />
        </mxCell>
        <mxCell id="d-cQ0HsLinr8hj7tUdYu-10" style="edgeStyle=orthogonalEdgeStyle;rounded=0;orthogonalLoop=1;jettySize=auto;html=1;exitX=0.5;exitY=1;exitDx=0;exitDy=0;entryX=0.5;entryY=0;entryDx=0;entryDy=0;" edge="1" parent="1" source="d-cQ0HsLinr8hj7tUdYu-2" target="d-cQ0HsLinr8hj7tUdYu-9">
          <mxGeometry relative="1" as="geometry" />
        </mxCell>
        <mxCell id="d-cQ0HsLinr8hj7tUdYu-11" value="" style="group" vertex="1" connectable="0" parent="1">
          <mxGeometry x="40" y="190" width="100" height="90" as="geometry" />
        </mxCell>
        <mxCell id="d-cQ0HsLinr8hj7tUdYu-9" value="Truck" style="rounded=1;whiteSpace=wrap;html=1;spacingTop=-70;fillColor=#d5e8d4;strokeColor=#82b366;" vertex="1" parent="d-cQ0HsLinr8hj7tUdYu-11">
          <mxGeometry width="100" height="90" as="geometry" />
        </mxCell>
        <mxCell id="d-cQ0HsLinr8hj7tUdYu-6" value="" style="group" vertex="1" connectable="0" parent="d-cQ0HsLinr8hj7tUdYu-11">
          <mxGeometry x="10" y="20" width="80" height="60" as="geometry" />
        </mxCell>
        <mxCell id="d-cQ0HsLinr8hj7tUdYu-7" value="Car" style="rounded=1;whiteSpace=wrap;html=1;spacingLeft=0;spacingTop=-35;fillColor=#dae8fc;strokeColor=#6c8ebf;" vertex="1" parent="d-cQ0HsLinr8hj7tUdYu-6">
          <mxGeometry width="80" height="60" as="geometry" />
        </mxCell>
        <mxCell id="d-cQ0HsLinr8hj7tUdYu-8" value="Vehicle" style="rounded=1;whiteSpace=wrap;html=1;spacingTop=0;" vertex="1" parent="d-cQ0HsLinr8hj7tUdYu-6">
          <mxGeometry x="10" y="20" width="60" height="30" as="geometry" />
        </mxCell>
        <mxCell id="d-cQ0HsLinr8hj7tUdYu-13" value="" style="group" vertex="1" connectable="0" parent="1">
          <mxGeometry x="240" y="90" width="80" height="60" as="geometry" />
        </mxCell>
        <mxCell id="d-cQ0HsLinr8hj7tUdYu-14" value="Boat" style="rounded=1;whiteSpace=wrap;html=1;spacingLeft=0;spacingTop=-35;fillColor=#ffe6cc;strokeColor=#d79b00;" vertex="1" parent="d-cQ0HsLinr8hj7tUdYu-13">
          <mxGeometry width="80" height="60" as="geometry" />
        </mxCell>
        <mxCell id="d-cQ0HsLinr8hj7tUdYu-15" value="Vehicle" style="rounded=1;whiteSpace=wrap;html=1;spacingTop=0;" vertex="1" parent="d-cQ0HsLinr8hj7tUdYu-13">
          <mxGeometry x="10" y="20" width="60" height="30" as="geometry" />
        </mxCell>
      </root>
    </mxGraphModel>
  </diagram>
</mxfile>
